<svg width="159" height="48" viewBox="0 0 159 48" fill="none" xmlns="http://www.w3.org/2000/svg">
<path id="Combined Shape" fill-rule="evenodd" clip-rule="evenodd" d="M14.3796 47.9801H16.6174C18.9398 47.4755 20.4652 45.9444 21.7163 44.0462C22.1849 43.3345 22.6871 42.6449 23.1901 41.9573C24.6322 39.9869 26.5016 38.745 28.997 38.5856C29.1493 38.5758 29.3012 38.5631 29.4404 38.5514C29.5058 38.5459 29.5684 38.5406 29.6269 38.536C28.7555 37.0734 27.9077 35.6505 27.1508 34.3798C27.4917 34.2526 27.8119 34.1224 28.1197 33.9972C28.7728 33.7317 29.37 33.489 29.9898 33.345C31.2985 33.0402 32.2925 32.2509 33.2084 31.3903C33.9227 30.7192 34.5366 29.9378 35.1478 29.16L35.1478 29.16C35.2795 28.9923 35.4112 28.8248 35.5436 28.6586C35.8672 28.2525 36.1608 27.7972 36.353 27.3182C36.4777 27.0075 36.5939 26.6933 36.7067 26.3776C36.9443 26.9173 37.2907 27.3921 37.746 27.8019C38.6982 28.6591 39.9341 29.0876 41.4537 29.0876C42.4108 29.0876 43.2249 28.8974 43.8959 28.517C44.5668 28.1366 45.1392 27.6238 45.6128 26.9785C45.6917 27.3059 45.7879 27.6237 45.9014 27.9319C46.0149 28.2401 46.1407 28.5194 46.2788 28.7698L51.2224 28.7843C50.9363 28.0812 50.7216 27.3734 50.5786 26.6607C50.4355 25.948 50.364 25.1727 50.364 24.3348V18.4408C50.364 16.6495 49.7497 15.2723 48.5212 14.3092C47.2927 13.3461 45.6917 12.8646 43.7182 12.8646C41.6066 12.8646 39.9094 13.3437 38.6267 14.302C38.359 14.5019 38.1208 14.712 37.912 14.9323C37.8866 14.7991 37.862 14.666 37.8388 14.5329C37.0859 10.223 34.9185 6.81933 31.2349 4.43889C30.0202 3.65396 28.7647 2.89385 27.4407 2.32717C25.2189 1.37644 22.8553 0.847807 20.4852 0.385655C20.0089 0.293134 19.5235 0.245452 19.0389 0.197855L18.8441 0.178608C18.404 0.134188 17.9634 0.100161 17.5226 0.0661204L17.5226 0.0661141C17.3275 0.0510525 17.1325 0.0359881 16.9374 0.0200195H15.0191C14.99 0.0361932 14.9614 0.055535 14.9329 0.0748535L14.9329 0.0748639C14.8724 0.115813 14.8121 0.156655 14.7468 0.166994C14.25 0.246689 13.7527 0.322413 13.2554 0.398143L13.2554 0.398146C12.693 0.48377 12.1307 0.569401 11.569 0.660784C9.90661 0.931106 8.35676 1.58028 6.98473 2.49217C5.6255 3.39565 4.56224 4.65195 3.75808 6.12851C2.78612 7.91304 2.14014 9.76525 2.07727 11.8037C2.07417 11.9034 2.09107 12.0088 2.10778 12.1131C2.13421 12.278 2.16018 12.44 2.1057 12.5718C1.59086 13.8166 2.13842 14.9978 2.60088 15.9954L2.62392 16.0451C3.21663 17.3239 3.59789 18.3002 2.61792 19.5589C1.90627 20.472 1.71283 21.5822 2.63874 22.6214C2.79453 22.7964 2.78091 23.2974 2.64395 23.5293C1.95115 24.7051 1.21119 25.8543 0.471643 27.0029L0.271515 27.3138C-0.252711 28.1292 -0.00681657 28.8857 0.913882 29.1932C1.21347 29.2935 1.51672 29.3834 1.85139 29.4827L1.85158 29.4828L1.85172 29.4828C2.01175 29.5303 2.17897 29.5799 2.3564 29.6338C2.29076 29.7835 2.23512 29.9264 2.18229 30.062C2.07592 30.3351 1.98094 30.5789 1.83859 30.7911L1.80878 30.8355C1.15274 31.8118 1.15172 31.8133 2.03442 32.6041C2.07301 32.6385 2.10184 32.6835 2.12773 32.7238C2.13891 32.7412 2.14954 32.7578 2.16017 32.7723L1.9035 33.1663C1.74217 33.4141 1.58501 33.6553 1.4301 33.8928C2.41527 34.7218 2.57867 35.176 2.27591 36.1295C1.71284 37.904 2.37843 38.9713 4.21983 39.2092C5.93726 39.4311 7.57489 39.0217 9.21351 38.612L9.21558 38.6115C9.35953 38.5755 9.50348 38.5395 9.6475 38.5039C9.8954 38.4431 10.3415 38.4194 10.416 38.5448C10.5852 38.83 10.7862 39.1018 10.9875 39.374C11.5713 40.1634 12.1573 40.9558 11.9739 42.085C11.943 42.2744 11.9835 42.5684 12.1088 42.6749C13.4396 43.8031 13.5325 45.3521 13.5393 46.9056C13.5422 47.5523 13.7724 47.8763 14.3796 47.9801ZM43.5258 19.5243C41.2913 19.5243 39.5814 19.8813 38.3963 20.5954C38.4175 20.0338 38.4047 19.4698 38.3919 18.9073C38.3859 18.6422 38.3798 18.3773 38.3774 18.1132C38.3769 18.065 38.376 18.0168 38.3746 17.9687L41.6757 17.9785C41.6757 17.4199 41.8163 17.0082 42.0975 16.7434C42.3787 16.4785 42.8055 16.3461 43.3778 16.3461C44.0488 16.3461 44.5446 16.5243 44.8653 16.8806C45.186 17.237 45.3464 17.7474 45.3464 18.4119V19.5243H43.5258ZM64.8653 24.3926C64.8653 24.0074 64.6408 23.6631 64.1919 23.3597C63.7429 23.0564 62.9264 22.7843 61.7423 22.5435C59.8773 22.1872 58.4712 21.6334 57.524 20.8822C56.5767 20.131 56.1031 19.1053 56.1031 17.8052C56.1031 16.428 56.6951 15.2602 57.8792 14.302C59.0633 13.3437 60.6667 12.8646 62.6896 12.8646C64.8209 12.8646 66.5181 13.3293 67.7811 14.2586C69.0442 15.188 69.6461 16.3894 69.5869 17.863L69.5573 17.9496H64.7025C64.7025 17.3333 64.5422 16.8662 64.2215 16.5484C63.9008 16.2305 63.3852 16.0716 62.6748 16.0716C62.1518 16.0716 61.7127 16.2113 61.3575 16.4906C61.0022 16.7699 60.8246 17.1262 60.8246 17.5596C60.8246 17.9737 61.0294 18.3252 61.4389 18.6142C61.8484 18.9031 62.6748 19.1631 63.9181 19.3942C65.8718 19.7698 67.3198 20.3308 68.2622 21.0772C69.2045 21.8236 69.6757 22.8806 69.6757 24.2482C69.6757 25.6543 69.0368 26.8124 67.7589 27.7225C66.4811 28.6326 64.7913 29.0876 62.6896 29.0876C60.5088 29.0876 58.7845 28.5483 57.5166 27.4697C56.2486 26.391 55.6442 25.1872 55.7034 23.8581L55.733 23.7714H60.2622C60.2819 24.513 60.5113 25.0475 60.9504 25.375C61.3895 25.7024 62.0136 25.8661 62.8228 25.8661C63.4938 25.8661 64.0019 25.7385 64.3473 25.4833C64.6926 25.2281 64.8653 24.8645 64.8653 24.3926ZM77.9494 9.26747V13.1535H80.6581V16.5339H77.9494V23.6992C77.9494 24.2578 78.0654 24.6599 78.2973 24.9055C78.5292 25.151 78.8424 25.2738 79.2371 25.2738C79.5529 25.2738 79.802 25.2642 79.9846 25.2449C80.1671 25.2257 80.4015 25.1872 80.6877 25.1294L81.0429 28.7409C80.4903 28.8661 79.992 28.9552 79.548 29.0082C79.1039 29.0611 78.581 29.0876 77.979 29.0876C76.3312 29.0876 75.083 28.6591 74.2344 27.8019C73.3858 26.9448 72.9615 25.5868 72.9615 23.7281V16.5339H70.7117V13.1535H72.9615V9.26747H77.9494ZM98.8933 8.53072H91.0487V28.7843H90.2494V8.53072H82.4048V7.75063H98.8933V8.53072ZM105.42 25.9528L106.012 27.513H106.101L106.19 27.2819L111.726 13.1535H112.614L105.494 31.3846C105.06 32.4825 104.554 33.3757 103.977 34.0643C103.4 34.7529 102.48 35.0972 101.217 35.0972C101.029 35.0972 100.822 35.0804 100.595 35.0467C100.368 35.013 100.2 34.9768 100.092 34.9383L100.225 34.2016C100.334 34.2305 100.497 34.2594 100.714 34.2882C100.931 34.3171 101.098 34.3316 101.217 34.3316C102.125 34.3316 102.833 34.0716 103.341 33.5515C103.849 33.0314 104.3 32.261 104.695 31.2401L105.657 28.6976L99.2779 13.1535H100.151L105.42 25.9528ZM127.903 21.2578C127.903 23.6655 127.37 25.5724 126.305 26.9785C125.239 28.3846 123.769 29.0876 121.894 29.0876C120.641 29.0876 119.548 28.842 118.615 28.3509C117.683 27.8597 116.955 27.1952 116.432 26.3573V34.7939H115.633V13.1535H116.255L116.418 15.9561C116.95 14.993 117.676 14.237 118.593 13.688C119.511 13.1391 120.601 12.8646 121.864 12.8646C123.749 12.8646 125.227 13.5941 126.297 15.0532C127.368 16.5122 127.903 18.4793 127.903 20.9544V21.2578ZM127.089 20.9544C127.089 18.7875 126.643 17.0275 125.75 15.6744C124.857 14.3212 123.567 13.6447 121.879 13.6447C120.33 13.6447 119.126 14.0251 118.268 14.7859C117.409 15.5468 116.798 16.4809 116.432 17.5885V24.8982C116.827 25.9384 117.488 26.7666 118.416 27.383C119.343 27.9994 120.508 28.3075 121.909 28.3075C123.596 28.3075 124.881 27.6719 125.765 26.4006C126.648 25.1294 127.089 23.4151 127.089 21.2578V20.9544ZM137.716 29.0876C135.891 29.0876 134.315 28.3677 132.987 26.9279C131.66 25.4881 130.997 23.6992 130.997 21.5612V20.6366C130.997 18.3926 131.638 16.5363 132.921 15.0676C134.204 13.5989 135.787 12.8646 137.672 12.8646C139.478 12.8646 140.95 13.4424 142.09 14.5981C143.23 15.7538 143.8 17.3044 143.8 19.2498V20.4488H131.796V21.5612C131.796 23.4488 132.363 25.0451 133.498 26.3501C134.633 27.6551 136.039 28.3075 137.716 28.3075C138.91 28.3075 139.909 28.1486 140.714 27.8308C141.518 27.513 142.206 27.0363 142.778 26.4006L143.208 27.0074C142.576 27.6912 141.809 28.2088 140.906 28.5603C140.003 28.9119 138.94 29.0876 137.716 29.0876ZM137.672 13.6447C136.083 13.6447 134.761 14.2105 133.705 15.3421C132.65 16.4737 132.053 17.887 131.914 19.5821L131.959 19.6687H143V19.192C143 17.6029 142.507 16.2811 141.52 15.2265C140.534 14.172 139.251 13.6447 137.672 13.6447ZM157.343 24.956C157.343 24.1278 156.98 23.3742 156.255 22.6952C155.53 22.0162 154.264 21.4841 152.459 21.0989C150.554 20.704 149.175 20.196 148.322 19.5748C147.468 18.9536 147.041 18.0315 147.041 16.8084C147.041 15.6912 147.525 14.7546 148.492 13.9986C149.459 13.2426 150.761 12.8646 152.399 12.8646C154.166 12.8646 155.557 13.2691 156.573 14.0781C157.59 14.887 158.073 15.9416 158.024 17.2418L157.994 17.3284H157.313C157.313 16.3076 156.872 15.4384 155.989 14.7209C155.105 14.0034 153.909 13.6447 152.399 13.6447C150.899 13.6447 149.765 13.9601 148.995 14.5909C148.225 15.2217 147.841 15.9512 147.841 16.7795C147.841 17.5981 148.166 18.2963 148.817 18.8742C149.469 19.452 150.761 19.9576 152.695 20.391C154.481 20.7955 155.836 21.3469 156.758 22.0451C157.681 22.7434 158.142 23.7185 158.142 24.9705C158.142 26.1936 157.629 27.1855 156.603 27.9464C155.577 28.7072 154.215 29.0876 152.518 29.0876C150.653 29.0876 149.19 28.6807 148.129 27.8669C147.068 27.0531 146.573 26.0636 146.642 24.8982L146.671 24.8116H147.323C147.402 26.0443 147.944 26.9351 148.951 27.4841C149.957 28.0331 151.146 28.3075 152.518 28.3075C153.998 28.3075 155.172 27.9705 156.04 27.2963C156.909 26.6221 157.343 25.8421 157.343 24.956ZM44.3399 25.3172C43.9255 25.5098 43.4716 25.6061 42.9782 25.6061C42.4848 25.6061 42.0827 25.4689 41.7719 25.1944C41.4611 24.9199 41.3057 24.5612 41.3057 24.1181C41.3057 23.5403 41.4857 23.0636 41.8459 22.688C42.2061 22.3124 42.7808 22.1246 43.5702 22.1246H45.3464V24.566C45.0898 24.8742 44.7543 25.1246 44.3399 25.3172ZM31.4736 21.4889L31.444 21.4023H26.5744C26.5053 22.7698 26.2192 23.7666 25.7159 24.3926C25.2127 25.0186 24.3592 25.3316 23.1553 25.3316C21.912 25.3316 20.9352 24.8838 20.2247 23.9881C19.5143 23.0925 19.159 21.9175 19.159 20.4633V16.0427C19.159 14.5981 19.4847 13.4304 20.1359 12.5395C20.7872 11.6487 21.6802 11.2033 22.8149 11.2033C24.1569 11.2033 25.1066 11.5355 25.6641 12.2001C26.2216 12.8646 26.5349 13.8806 26.604 15.2482H31.4736L31.5032 15.1615C31.3157 12.696 30.5016 10.794 29.061 9.45528C27.6203 8.1166 25.5383 7.44727 22.8149 7.44727C20.2494 7.44727 18.1649 8.24902 16.5614 9.85255C14.958 11.4561 14.1562 13.5291 14.1562 16.0716V20.4633C14.1562 23.0154 14.99 25.0909 16.6576 26.6896C18.3252 28.2883 20.4911 29.0876 23.1553 29.0876C25.8097 29.0876 27.835 28.4376 29.2312 27.1374C30.6274 25.8372 31.3749 23.9544 31.4736 21.4889Z" fill="white"/>
</svg>
